<svg width="827" height="180" viewBox="0 0 827 180" fill="none" xmlns="http://www.w3.org/2000/svg">
<path d="M173.557 22.5477C171.829 14.4555 165.544 8.17066 157.452 6.44265C138.52 2.39975 115.251 0 90 0C64.7488 0 41.4801 2.39975 22.5477 6.44265C14.4555 8.17066 8.17066 14.4555 6.44265 22.5477C2.39975 41.4801 0 64.7488 0 90C0 115.251 2.39975 138.52 6.44265 157.452C8.17066 165.544 14.4555 171.829 22.5477 173.557C41.4801 177.6 64.7488 180 90 180C115.251 180 138.52 177.6 157.452 173.557C165.544 171.829 171.829 165.544 173.557 157.452C177.6 138.52 180 115.251 180 90C180 64.7488 177.6 41.4801 173.557 22.5477Z" fill="#00230C"/>
<path d="M34.0894 58.8367H53.1059C53.6941 58.8367 54.0862 59.0327 54.4783 59.4247L75.0632 87.844L75.2593 88.236V91.5679L75.0632 91.9599L54.4783 120.379C54.4783 120.379 54.4783 120.379 54.2822 120.575C54.0862 120.967 53.498 121.163 53.1059 121.163H34.0894C33.3052 121.163 32.521 120.379 32.521 119.595V107.052C32.521 106.464 32.9131 105.876 33.5012 105.68C33.5012 105.68 33.5012 105.68 33.6973 105.68L68.3976 93.1359L68.5937 92.9399C68.5937 92.9399 68.7897 92.9399 68.7897 92.7439C69.1818 92.5479 69.5739 92.1559 69.5739 91.5679V91.3719V91.176V88.824C69.5739 88.824 69.5739 88.824 69.5739 88.628C69.5739 88.04 69.1818 87.452 68.5937 87.256L68.3976 87.06L33.6973 74.5163C33.6973 74.5163 33.6973 74.5163 33.5012 74.5163C32.9131 74.1243 32.521 73.7323 32.521 72.9484V60.4046C32.521 59.4247 33.3052 58.8367 34.0894 58.8367Z" fill="#D1FA52"/>
<path d="M145.912 58.8367H126.909C126.321 58.8367 125.929 59.0327 125.537 59.4247L104.967 87.844L104.771 88.236V91.5679L104.967 91.9599L125.537 120.379C125.537 120.379 125.537 120.379 125.733 120.575C125.929 120.967 126.517 121.163 126.909 121.163H145.912C146.695 121.163 147.479 120.379 147.479 119.595V107.052C147.479 106.464 147.087 105.876 146.499 105.68C146.499 105.68 146.499 105.68 146.304 105.68L111.628 93.1359L111.432 92.7439C111.432 92.7439 111.236 92.7439 111.236 92.5479C110.844 92.3519 110.453 91.9599 110.453 91.3719V91.176V90.98V88.628C110.453 88.628 110.453 88.628 110.453 88.432C110.453 87.844 110.844 87.256 111.432 87.06L111.628 86.864L146.304 74.3203C146.304 74.3203 146.304 74.3203 146.499 74.3203C147.087 74.1243 147.479 73.5363 147.479 72.9484V60.4046C147.479 59.4247 146.695 58.8367 145.912 58.8367Z" fill="#D1FA52"/>
<path d="M58.8367 34.0903V53.1178C58.8367 53.7063 59.0321 54.0986 59.4228 54.491L87.7531 75.0878L88.1439 75.284H91.6607L92.0515 75.0878L120.382 54.491C120.382 54.491 120.382 54.491 120.577 54.2948C120.968 54.0987 121.163 53.5102 121.163 53.1178V34.0903C120.968 33.3056 120.382 32.521 119.405 32.521H106.9C106.314 32.521 105.728 32.9133 105.533 33.5018C105.533 33.5018 105.533 33.5018 105.533 33.698L93.0284 68.4184L92.833 68.6145C92.833 68.6145 92.833 68.8107 92.6376 68.8107C92.4422 69.203 92.0515 69.5953 91.4653 69.5953H91.27H91.0746H88.73C88.73 69.5953 88.73 69.5953 88.5346 69.5953C87.9485 69.5953 87.3623 69.203 87.167 68.6145L86.9716 68.4184L74.4672 33.698C74.4672 33.698 74.4672 33.698 74.4672 33.5018C74.2718 32.9133 73.6856 32.521 73.0995 32.521H60.3997C59.6182 32.521 58.8367 33.3056 58.8367 34.0903Z" fill="#D1FA52"/>
<path d="M58.8367 145.91V126.882C58.8367 126.294 59.0327 125.901 59.4247 125.509L87.844 104.912L88.236 104.716H91.5679L91.9599 104.912L120.379 125.509C120.379 125.509 120.379 125.509 120.575 125.705C120.967 125.901 121.163 126.49 121.163 126.882V145.91C121.163 146.694 120.379 147.479 119.595 147.479H107.052C106.464 147.479 105.876 147.087 105.68 146.498C105.68 146.498 105.68 146.498 105.68 146.302L93.1359 111.582L92.9399 111.386C92.9399 111.386 92.9399 111.189 92.7439 111.189C92.5479 110.797 92.1559 110.405 91.5679 110.405H91.3719H91.176H88.824C88.824 110.405 88.824 110.405 88.628 110.405C88.04 110.405 87.452 110.797 87.256 111.386L87.06 111.582L74.5163 146.302C74.5163 146.302 74.5163 146.302 74.5163 146.498C74.3203 147.087 73.7323 147.479 73.1444 147.479H60.6006C59.4247 147.479 58.8367 146.891 58.8367 145.91Z" fill="#D1FA52"/>
<path d="M259.849 162C253.83 162 248.313 160.746 243.548 157.987C238.783 155.48 234.771 151.718 232.263 146.702C229.505 141.686 228 135.918 228 129.147C228 122.878 229.003 117.862 231.26 113.599C233.517 109.335 236.276 105.824 240.037 103.317C243.799 100.558 247.811 98.3009 252.075 96.2946C256.338 94.2884 260.852 92.7837 264.864 91.279C269.128 89.7743 273.14 88.2696 276.902 86.7649C280.663 85.2601 283.422 83.2539 285.679 81.2476C287.936 78.9906 288.939 76.2319 289.19 72.721L291.447 94.2884C290.694 96.2946 289.19 98.0501 286.933 99.5548C284.927 101.06 282.419 102.313 279.66 103.567C276.902 104.821 274.143 106.075 271.134 107.329C268.124 108.583 265.617 110.339 263.109 112.094C260.601 113.849 258.595 116.107 257.09 118.614C255.586 121.122 254.833 124.132 254.833 127.893C254.833 132.157 256.087 135.668 258.344 138.176C260.601 140.683 263.861 142.188 267.623 142.188C271.385 142.188 274.394 141.185 277.152 139.179C279.66 137.172 281.917 134.414 283.673 131.154C285.428 127.893 286.933 124.132 287.685 120.119C288.688 116.107 289.19 112.345 289.19 108.583L291.698 124.884C291.698 132.407 290.444 138.928 287.936 144.445C285.428 149.962 281.917 154.476 277.152 157.486C272.388 160.495 266.62 162 259.849 162ZM291.698 158.991C291.196 157.235 290.694 154.727 290.193 151.718C289.691 148.708 289.441 145.448 289.19 142.188C288.939 138.928 288.939 135.918 288.939 133.16V72.4702C288.939 67.7053 287.434 63.6928 284.425 60.4326C281.416 57.4232 277.403 55.6677 272.388 55.6677C266.62 55.6677 262.106 57.9247 258.846 62.1881C255.586 66.7022 253.579 72.4702 253.329 79.9937L228.502 77.4859C229.254 71.2163 230.759 65.4482 233.266 60.1818C235.774 55.1661 238.783 50.652 243.047 47.141C247.059 43.3793 251.573 40.6207 256.839 38.6144C262.106 36.6081 267.874 35.605 274.143 35.605C282.419 35.605 289.441 37.3605 295.71 40.8714C301.979 44.3824 306.744 49.3981 310.255 55.9185C313.766 62.4388 315.271 69.9623 315.271 78.7398V130.652C315.271 133.411 315.271 136.922 315.521 140.683C315.772 144.696 316.274 148.207 317.026 151.467C317.778 154.727 318.531 157.235 319.785 158.74H291.698V158.991Z" fill="#00230C"/>
<path d="M373.702 162C366.429 162 359.909 160.495 353.89 157.235C347.872 154.226 342.856 149.712 338.593 144.194C334.33 138.426 331.07 131.906 328.813 124.132C326.556 116.357 325.552 108.081 325.552 98.8025C325.552 89.5235 326.806 80.9968 329.063 73.2225C331.32 65.4482 334.58 58.9279 338.844 53.1598C343.107 47.3918 348.373 43.1285 354.392 40.1191C360.411 37.1097 366.931 35.605 374.203 35.605C382.479 35.605 389.501 37.3605 395.519 41.1222C401.538 44.6332 406.554 49.6489 410.315 55.9185C414.077 62.1881 416.585 69.4608 417.588 77.4859C418.842 85.5109 418.591 93.7868 416.836 102.815H339.345L351.383 89.5235C350.379 98.8025 350.379 106.828 351.132 113.348C351.884 119.868 353.64 125.135 355.897 129.147C358.154 133.16 360.912 136.169 363.921 137.925C366.931 139.68 370.191 140.683 373.702 140.683C378.968 140.683 383.231 138.677 386.491 134.665C389.752 130.652 391.507 125.636 392.259 119.367L417.086 121.373C416.334 129.398 413.826 136.42 409.814 142.69C405.801 148.708 400.786 153.473 394.516 156.984C388.498 160.244 381.476 162 373.702 162ZM351.884 85.0094H392.259C392.51 79.2413 391.758 74.2257 390.253 69.9623C388.748 65.699 386.491 62.1881 383.733 59.6802C380.974 57.1724 377.463 55.9185 373.702 55.9185C369.689 55.9185 366.178 57.1724 363.169 59.6802C360.16 62.1881 357.652 65.699 355.646 69.9623C353.64 74.4765 352.386 79.4921 351.884 85.0094Z" fill="#00230C"/>
<path d="M452.697 158.991L420.096 38.6145H447.43L458.966 88.0189C462.979 103.818 466.49 120.872 469.499 138.677C473.01 120.621 476.521 103.818 480.032 88.2697L491.066 38.6145H518.15L485.549 158.991H452.697Z" fill="#00230C"/>
<path d="M526.175 25.8244V2H552.256V25.8244H526.175ZM526.175 158.991V38.6144H552.256V158.991H526.175Z" fill="#00230C"/>
<path d="M561.534 59.4295V38.6144H629.244V59.4295H561.534ZM610.185 162C603.665 162 597.897 160.495 593.132 157.235C588.368 154.226 584.606 149.712 582.098 144.194C579.59 138.677 578.337 131.906 578.337 124.382V2H604.417V120.871C604.417 127.643 605.421 132.408 607.427 135.668C609.433 138.928 612.192 140.433 615.702 140.433C617.709 140.433 619.715 139.931 621.721 138.928C623.727 137.925 625.232 135.918 626.737 133.411L631.251 154.226C629.495 155.981 627.489 157.235 625.232 158.74C622.975 159.994 620.718 160.997 618.21 161.248C615.452 161.749 612.944 162 610.185 162Z" fill="#00230C"/>
<path d="M667.864 162C661.845 162 656.328 160.746 651.563 157.987C646.799 155.48 642.786 151.718 640.278 146.702C637.52 141.687 636.015 135.919 636.015 129.147C636.015 122.878 637.018 117.862 639.275 113.599C641.532 109.335 644.291 105.824 648.052 103.317C651.814 100.558 655.827 98.3009 660.09 96.2947C664.353 94.2884 668.867 92.7837 672.879 91.279C677.143 89.7743 681.155 88.2696 684.917 86.7649C688.678 85.2602 691.437 83.2539 693.694 81.2477C695.951 78.9906 696.954 76.232 697.205 72.721L699.462 94.2884C698.71 96.2947 697.205 98.0502 694.948 99.5549C692.942 101.06 690.434 102.313 687.675 103.567C684.917 104.821 682.158 106.075 679.149 107.329C676.14 108.583 673.632 110.339 671.124 112.094C668.616 113.85 666.61 116.107 665.105 118.614C663.601 121.122 662.848 124.132 662.848 127.893C662.848 132.157 664.102 135.668 666.359 138.176C668.616 140.683 671.876 142.188 675.638 142.188C679.4 142.188 682.409 141.185 685.168 139.179C687.675 137.172 689.932 134.414 691.688 131.154C693.443 127.893 694.948 124.132 695.951 120.119C696.954 116.107 697.205 112.345 697.205 108.583L699.713 124.884C699.713 132.408 698.459 138.928 695.951 144.445C693.443 149.962 689.932 154.477 685.168 157.486C680.403 160.495 674.635 162 667.864 162ZM699.713 158.991C699.211 157.235 698.71 154.727 698.459 151.718C697.957 148.708 697.706 145.448 697.456 142.188C697.205 138.928 697.205 135.919 697.205 133.16V72.4702C697.205 67.7053 695.7 63.6928 692.691 60.4326C689.682 57.4232 685.669 55.6677 680.654 55.6677C674.886 55.6677 670.372 57.9248 667.112 62.1881C663.851 66.7022 661.845 72.4702 661.594 79.9937L636.266 77.2351C637.018 70.9655 638.523 65.1975 641.031 59.931C643.538 54.9154 646.548 50.4013 650.56 46.8903C654.573 43.1285 659.087 40.3699 664.353 38.3637C669.619 36.3574 675.387 35.3542 681.657 35.3542C689.932 35.3542 696.954 37.1097 703.224 40.6207C709.493 44.1317 714.258 49.1473 717.769 55.6677C721.28 62.1881 722.784 69.7116 722.784 78.489V130.401C722.784 133.16 722.784 136.671 723.286 140.433C723.537 144.445 724.038 147.956 724.54 151.216C725.292 154.477 726.044 156.984 727.298 158.489H699.713V158.991Z" fill="#00230C"/>
<path d="M732.314 158.991L764.664 98.0502L732.564 38.6145H761.655L779.209 77.7368L796.513 38.6145H823.848L793.002 96.5455L826.857 158.991H797.767L778.457 117.11L759.899 158.991H732.314Z" fill="#00230C"/>
</svg>
